<?xml version="1.0" encoding="utf-8"?>
<!-- Generator: Adobe Illustrator 23.1.1, SVG Export Plug-In . SVG Version: 6.00 Build 0)  -->
<svg version="1.1" id="Layer_1" xmlns="http://www.w3.org/2000/svg" xmlns:xlink="http://www.w3.org/1999/xlink" x="0px" y="0px"
	 viewBox="0 0 2426.5 249.2" style="enable-background:new 0 0 2426.5 249.2;" xml:space="preserve">
<style type="text/css">
	.st0{fill-rule:evenodd;clip-rule:evenodd;fill:#FFFFFF;}
</style>
<g>
	<path class="st0" d="M540.1,249L621.3,0.2h122.6L826.5,249h-93.4l-15.5-44.8h-73.4L628.6,249H540.1z M682.8,55.2l-35.4,98.6h68
		L682.8,55.2z M1578.5,249.1l81.2-248.8h122.6l82.6,248.8h-93.4l-15.5-44.8h-73.4l-15.6,44.8H1578.5L1578.5,249.1z M1721.2,55.4
		l-35.4,98.6h68L1721.2,55.4z M847.7,249V0.2h176.5c19.9,0,36.1,7.1,48.9,15.8c12.7,8.7,23.7,19.9,28,35.2c6.2,21.6,4.8,39.1,0.7,51
		c-4.1,11.9-11.3,22-21.5,30s-18.8,14.3-37.9,18.9c7.4,7.5,7.3,7.8,16,14c11.9,8.4,22.8,9.6,63.4,9.8h69.8V249l-70.3,0.2
		c-76.5,0.2-103.4-0.4-118.1-13.6c-18.4-16.5-38.5-35.9-66.3-68.8V249L847.7,249L847.7,249z M937,62.1V108h62.2
		c3.3,0,7-1.2,10.8-3.7c3.9-2.5,6-8.7,6.2-18.7c-0.6-9.5-2.9-15.8-6.9-18.9c-4-3-7.5-4.6-10.2-4.6L937,62.1L937,62.1z M2426.4,0.2
		h-182.1c-31.4,0-50.2,15.4-56.1,46.2c-5.9,30.8,11,64.5,50.7,101.3c24,19.1,19.9,28.2-12.3,27.2h-42.3v-0.1h-22.4
		c-40.6-0.2-51.6-1.3-63.4-9.8c-8.7-6.2-8.7-6.5-16-14c19.1-4.6,27.7-10.9,37.9-18.9s17.4-18.1,21.5-30s5.5-29.4-0.7-51
		c-4.4-15.3-15.3-26.5-28-35.2c-12.8-8.7-29-15.8-48.9-15.8h-176.5v248.8h89.2v-82.2c27.8,32.9,47.9,52.3,66.3,68.8
		c14.6,13.2,41.6,14.2,118.1,13.6l13.3-0.1l0,0H2306c35.5-6,53.7-24.4,54.4-55.2c0.6-30.8-17.1-62.9-54.4-95.1
		c-20.3-17.6-16.3-24.5,13-24.5h107.5L2426.4,0.2L2426.4,0.2z M1977,62.1V108h62.2c3.3,0,6.9-1.2,10.8-3.7c3.9-2.5,6-8.7,6.2-18.7
		c-0.6-9.5-2.9-15.8-6.9-18.9c-4-3-7.4-4.6-10.1-4.6L1977,62.1L1977,62.1z M196,0.1c-31.5,0-50.1,15.4-56.1,46.2
		c-5.9,30.8,10,65.6,50.6,101.3c23.1,20.3,19.9,27.2-12.3,27.2H0v74.1h257.6c36,0,53.7-24.4,54.4-55.2c0.7-30.8-17.4-62.5-54.4-95.1
		c-20.6-17.2-16.3-25.4,13-24.5h110.5v174.8h80.3V74.1h112.1V0L196,0.1L196,0.1z M1373.4,0.1L1351.3,74l-24.5-73.9h-92.1l81.2,248.8
		h79.5l27.2-83.1l27.2,83.1h79.5l81.2-248.8h-92.1L1493.9,74l-22.1-73.9H1373.4L1373.4,0.1z"/>
</g>
</svg>
